<svg viewBox="0 0 96 96" xmlns="http://www.w3.org/2000/svg" xmlns:xlink="http://www.w3.org/1999/xlink" id="Icons_GraduationCap_M" overflow="hidden"><g id="Icons"><path d="M91.612 39.7 48.006 24.1 4.4 39.7 13 42.719 13 60.1C13 60.6523 13.4477 61.1 14 61.1 14.5523 61.1 15 60.6523 15 60.1L15 43.42 22.038 45.89 22.038 60.29C22.038 66.15 33.93 71.1 48.006 71.1 62.082 71.1 73.975 66.15 73.975 60.292L73.975 45.89ZM48.006 26.225 85.6 39.674C85.615 39.679 85.615 39.687 85.6 39.692L48.006 52.882 10.416 39.692C10.401 39.687 10.401 39.679 10.416 39.674ZM71.975 60.292C71.975 64.365 61.505 69.1 48.006 69.1 34.507 69.1 24.038 64.365 24.038 60.292L24.038 46.592 48.006 55 71.975 46.59Z" fill="#FFAF10"/></g></svg>